<?xml version="1.0" standalone="no"?>
<!DOCTYPE svg PUBLIC "-//W3C//DTD SVG 20010904//EN"
 "http://www.w3.org/TR/2001/REC-SVG-20010904/DTD/svg10.dtd">
<svg version="1.0" xmlns="http://www.w3.org/2000/svg"
 width="512.000000pt" height="512.000000pt" viewBox="0 0 512.000000 512.000000"
 preserveAspectRatio="xMidYMid meet">
<metadata>
Created by potrace 1.11, written by Peter Selinger 2001-2013
</metadata>
<g transform="translate(0.000000,512.000000) scale(0.100000,-0.100000)"
fill="#000000" stroke="none">
<path d="M2500 5043 c-33 -43 -66 -85 -73 -93 -7 -8 -23 -31 -37 -50 -13 -19
-42 -58 -64 -86 -23 -28 -48 -61 -56 -73 -8 -12 -83 -116 -166 -230 -123 -169
-231 -324 -404 -581 -35 -52 -157 -242 -214 -335 -37 -60 -77 -122 -87 -137
-10 -15 -19 -30 -19 -34 0 -3 -8 -18 -19 -32 -56 -80 -308 -553 -371 -697 -12
-27 -36 -79 -52 -115 -43 -94 -131 -331 -143 -383 -2 -12 -13 -60 -24 -107
-21 -89 -36 -208 -34 -275 2 -71 12 -219 17 -240 2 -11 7 -40 11 -65 13 -85
55 -238 89 -328 245 -642 823 -1092 1501 -1169 127 -15 374 -8 505 13 169 27
437 117 550 185 8 5 22 12 30 16 29 13 186 116 245 162 87 66 250 232 328 334
37 48 67 89 67 92 0 3 16 29 34 59 136 211 244 537 262 785 5 77 5 276 0 292
-3 8 -8 32 -10 54 -7 57 -56 248 -67 260 -5 5 -9 16 -9 25 0 19 -58 175 -95
255 -15 33 -34 78 -43 100 -55 142 -337 659 -510 935 -266 424 -687 1032 -954
1375 -4 6 -18 24 -31 40 -13 17 -40 51 -60 78 l-36 47 -61 -77z"/>
</g>
</svg>
