<?xml version="1.0" encoding="UTF-8"?>
<svg viewBox="0 0 128 128" xmlns="http://www.w3.org/2000/svg">
 <defs>
  <radialGradient id="e" cx="27.499" cy="122.6" r="18.17" gradientTransform="matrix(1 0 0 .18919 0 99.404)" gradientUnits="userSpaceOnUse">
   <stop offset="0"/>
   <stop stop-opacity="0" offset="1"/>
  </radialGradient>
  <filter id="f" x="-.02" y="-.107" width="1.04" height="1.214" color-interpolation-filters="sRGB">
   <feGaussianBlur stdDeviation="0.3065"/>
  </filter>
  <radialGradient id="g" cx="64.26" cy="-9.988" r="56.927" gradientTransform="matrix(1.1554 -1.5121e-8 1.863e-8 1.4235 -9.9844 6.2909)" gradientUnits="userSpaceOnUse">
   <stop stop-color="#eee" offset="0"/>
   <stop stop-color="#eee" stop-opacity="0" offset="1"/>
  </radialGradient>
  <linearGradient id="h" x2="0" y1="6.606" y2="120.27" gradientUnits="userSpaceOnUse">
   <stop stop-color="#e85752" offset="0"/>
   <stop stop-color="#d20303" offset="1"/>
  </linearGradient>
 </defs>
 <path transform="matrix(1.1351 0 0 1 -8.6265 .49105)" d="m45.667 122.6a18.169 3.4373 0 1 1 -36.337 0 18.169 3.4373 0 1 1 36.337 0z" fill="url(#e)" filter="url(#f)" opacity=".267"/>
 <path transform="matrix(1.1351 0 0 1 73.873 .49105)" d="m45.667 122.6a18.169 3.4373 0 1 1 -36.337 0 18.169 3.4373 0 1 1 36.337 0z" fill="url(#e)" filter="url(#f)" opacity=".267"/>
 <path d="m7.0298 18.815c-3.1849 3.1849-3.1849 8.3517 0 11.537l33.061 33.061-33.061 33.061c-3.1849 3.1849-3.1849 8.3517 0 11.537l12.658 12.658c3.1849 3.1849 8.2983 3.1315 11.483-0.0534l33.061-33.061 33.114 33.114c3.1849 3.1849 8.2983 3.1315 11.483-0.0534l12.605-12.605c3.1849-3.1849 3.2383-8.2983 0.0534-11.483l-33.114-33.114 33.061-33.061c3.1849-3.1849 3.2383-8.2983 0.0534-11.483l-12.658-12.658c-3.1849-3.1849-8.3517-3.1849-11.537 0l-33.061 33.061-33.061-33.061c-3.1849-3.1849-8.3517-3.1849-11.537 0l-12.605 12.605z" fill="#9c0f0f"/>
 <path d="m25.406 6.625c-1.3606 0-2.7533 0.50327-3.8125 1.5625l-12.594 12.594c-2.1157 2.1157-2.1157 5.478 0 7.5938l33.062 33.062a2.7992 2.7992 0 0 1 0 3.9375l-33.062 33.062c-2.1157 2.1157-2.1157 5.478 0 7.5938l12.656 12.656c2.1222 2.1222 5.3961 2.1039 7.5312-0.0312l33.062-33.063a2.7992 2.7992 0 0 1 3.9375 0l33.125 33.094c2.1157 2.1157 5.4338 2.0974 7.5625-0.0312l12.594-12.625c2.1416-2.1416 2.1782-5.4155 0.0625-7.5312l-33.125-33.125a2.7992 2.7992 0 0 1 0 -3.9375l33.062-33.062c2.1416-2.1416 2.1782-5.4155 0.0625-7.5312l-12.656-12.656c-2.1092-2.1092-5.5158-2.1092-7.625 0l-33.062 33.062a2.7992 2.7992 0 0 1 -3.9375 0l-33.062-33.062c-1.0722-1.0722-2.4206-1.5625-3.7812-1.5625z" fill="url(#h)"/>
 <path d="m103.06 7.5312c-1.1347 0-2.2775 0.43373-3.1562 1.3125l-33.062 33.062c-1.4481 1.4327-3.8019 1.4327-5.25 0l-33.062-33.062c-0.89542-0.89542-1.9895-1.2812-3.125-1.2812-1.1296 0-2.2824 0.40744-3.1562 1.2812l-12.594 12.594c-1.7648 1.7648-1.7648 4.5165 0 6.2812l33.062 33.062c1.4327 1.4481 1.4327 3.8019 0 5.25l-33.062 33.062c-1.7648 1.7648-1.7648 4.5165 0 6.2812l12.656 12.656c1.7796 1.7796 4.4204 1.7671 6.2188-0.0312l33.062-33.062c1.4481-1.4327 3.8019-1.4327 5.25 0l33.125 33.094c1.7675 1.7675 4.4637 1.7551 6.25-0.0312l12.594-12.625c1.8078-1.8078 1.8327-4.4486 0.0625-6.2188l-33.125-33.125c-1.4327-1.4481-1.4327-3.8019 0-5.25l33.062-33.062c1.8078-1.8078 1.8327-4.4486 0.0625-6.2188l-12.656-12.656c-0.87878-0.87877-2.0215-1.3125-3.1562-1.3125z" fill="none" stroke="url(#g)" stroke-width="2"/>
</svg>
